<?xml version="1.0" encoding="UTF-8" standalone="no"?>
<!-- Created with Inkscape (http://www.inkscape.org/) -->

<svg
   xmlns:dc="http://purl.org/dc/elements/1.1/"
   xmlns:cc="http://creativecommons.org/ns#"
   xmlns:rdf="http://www.w3.org/1999/02/22-rdf-syntax-ns#"
   xmlns:svg="http://www.w3.org/2000/svg"
   xmlns="http://www.w3.org/2000/svg"
   xmlns:sodipodi="http://sodipodi.sourceforge.net/DTD/sodipodi-0.dtd"
   xmlns:inkscape="http://www.inkscape.org/namespaces/inkscape"
   width="744.09448819"
   height="1052.3622047"
   id="svg2"
   version="1.1"
   inkscape:version="0.48.2 r9819"
   sodipodi:docname="many-to-many-mapping.svg"
   inkscape:export-filename="C:\LEdProjects\G0\many-to-many-mapping.png"
   inkscape:export-xdpi="400"
   inkscape:export-ydpi="400">
  <defs
     id="defs4">
    <marker
       inkscape:stockid="Arrow1Lend"
       orient="auto"
       refY="0.0"
       refX="0.0"
       id="Arrow1Lend"
       style="overflow:visible;">
      <path
         id="path3912"
         d="M 0.0,0.0 L 5.0,-5.0 L -12.5,0.0 L 5.0,5.0 L 0.0,0.0 z "
         style="fill-rule:evenodd;stroke:#000000;stroke-width:1.0pt;marker-start:none;"
         transform="scale(0.8) rotate(180) translate(12.5,0)" />
    </marker>
    <marker
       inkscape:stockid="Arrow1Lend"
       orient="auto"
       refY="0"
       refX="0"
       id="Arrow1Lend-5"
       style="overflow:visible">
      <path
         inkscape:connector-curvature="0"
         id="path3912-1"
         d="M 0,0 5,-5 -12.5,0 5,5 0,0 z"
         style="fill-rule:evenodd;stroke:#000000;stroke-width:1pt;marker-start:none"
         transform="matrix(-0.8,0,0,-0.8,-10,0)" />
    </marker>
    <marker
       inkscape:stockid="Arrow1Lend"
       orient="auto"
       refY="0"
       refX="0"
       id="Arrow1Lend-1"
       style="overflow:visible">
      <path
         inkscape:connector-curvature="0"
         id="path3912-15"
         d="M 0,0 5,-5 -12.5,0 5,5 0,0 z"
         style="fill-rule:evenodd;stroke:#000000;stroke-width:1pt;marker-start:none"
         transform="matrix(-0.8,0,0,-0.8,-10,0)" />
    </marker>
    <marker
       inkscape:stockid="Arrow1Lend"
       orient="auto"
       refY="0"
       refX="0"
       id="Arrow1Lend-7"
       style="overflow:visible">
      <path
         inkscape:connector-curvature="0"
         id="path3912-6"
         d="M 0,0 5,-5 -12.5,0 5,5 0,0 z"
         style="fill-rule:evenodd;stroke:#000000;stroke-width:1pt;marker-start:none"
         transform="matrix(-0.8,0,0,-0.8,-10,0)" />
    </marker>
    <marker
       inkscape:stockid="Arrow1Lend"
       orient="auto"
       refY="0"
       refX="0"
       id="Arrow1Lend-4"
       style="overflow:visible">
      <path
         inkscape:connector-curvature="0"
         id="path3912-2"
         d="M 0,0 5,-5 -12.5,0 5,5 0,0 z"
         style="fill-rule:evenodd;stroke:#000000;stroke-width:1pt;marker-start:none"
         transform="matrix(-0.8,0,0,-0.8,-10,0)" />
    </marker>
  </defs>
  <sodipodi:namedview
     id="base"
     pagecolor="#ffffff"
     bordercolor="#666666"
     borderopacity="1.0"
     inkscape:pageopacity="0.0"
     inkscape:pageshadow="2"
     inkscape:zoom="1"
     inkscape:cx="375"
     inkscape:cy="520"
     inkscape:document-units="px"
     inkscape:current-layer="layer1"
     showgrid="false"
     inkscape:window-width="965"
     inkscape:window-height="1396"
     inkscape:window-x="47"
     inkscape:window-y="122"
     inkscape:window-maximized="0" />
  <metadata
     id="metadata7">
    <rdf:RDF>
      <cc:Work
         rdf:about="">
        <dc:format>image/svg+xml</dc:format>
        <dc:type
           rdf:resource="http://purl.org/dc/dcmitype/StillImage" />
        <dc:title />
      </cc:Work>
    </rdf:RDF>
  </metadata>
  <g
     inkscape:label="Layer 1"
     inkscape:groupmode="layer"
     id="layer1">
    <path
       sodipodi:type="arc"
       style="fill:#ff0000;fill-opacity:1;stroke:#ffffff;stroke-width:1;stroke-miterlimit:4;stroke-opacity:1;stroke-dasharray:1, 3;stroke-dashoffset:0"
       id="path2985"
       sodipodi:cx="279"
       sodipodi:cy="398.36218"
       sodipodi:rx="6"
       sodipodi:ry="6"
       d="m 285,398.36218 a 6,6 0 1 1 -12,0 6,6 0 1 1 12,0 z"
       transform="translate(-61,-33)" />
    <path
       transform="translate(-43,77)"
       sodipodi:type="arc"
       style="fill:#ff0000;fill-opacity:1;stroke:#ffffff;stroke-width:1;stroke-miterlimit:4;stroke-opacity:1;stroke-dasharray:1, 3;stroke-dashoffset:0"
       id="path2985-1"
       sodipodi:cx="279"
       sodipodi:cy="398.36218"
       sodipodi:rx="6"
       sodipodi:ry="6"
       d="m 285,398.36218 a 6,6 0 1 1 -12,0 6,6 0 1 1 12,0 z" />
    <path
       transform="translate(-62,12)"
       sodipodi:type="arc"
       style="fill:#800080;fill-opacity:1;stroke:#ffffff;stroke-width:1;stroke-miterlimit:4;stroke-opacity:1;stroke-dasharray:1, 3;stroke-dashoffset:0"
       id="path2985-7"
       sodipodi:cx="279"
       sodipodi:cy="398.36218"
       sodipodi:rx="6"
       sodipodi:ry="6"
       d="m 285,398.36218 a 6,6 0 1 1 -12,0 6,6 0 1 1 12,0 z" />
    <path
       transform="translate(-81,62)"
       sodipodi:type="arc"
       style="fill:#800080;fill-opacity:1;stroke:#ffffff;stroke-width:1;stroke-miterlimit:4;stroke-opacity:1;stroke-dasharray:1, 3;stroke-dashoffset:0"
       id="path2985-4"
       sodipodi:cx="279"
       sodipodi:cy="398.36218"
       sodipodi:rx="6"
       sodipodi:ry="6"
       d="m 285,398.36218 a 6,6 0 1 1 -12,0 6,6 0 1 1 12,0 z" />
    <path
       transform="translate(-90,125)"
       sodipodi:type="arc"
       style="fill:#ff0000;fill-opacity:1;stroke:#ffffff;stroke-width:1;stroke-miterlimit:4;stroke-opacity:1;stroke-dasharray:1, 3;stroke-dashoffset:0"
       id="path2985-0"
       sodipodi:cx="279"
       sodipodi:cy="398.36218"
       sodipodi:rx="6"
       sodipodi:ry="6"
       d="m 285,398.36218 a 6,6 0 1 1 -12,0 6,6 0 1 1 12,0 z" />
    <path
       transform="translate(-97,19)"
       sodipodi:type="arc"
       style="fill:#800080;fill-opacity:1;stroke:#ffffff;stroke-width:1;stroke-miterlimit:4;stroke-opacity:1;stroke-dasharray:1, 3;stroke-dashoffset:0"
       id="path2985-9"
       sodipodi:cx="279"
       sodipodi:cy="398.36218"
       sodipodi:rx="6"
       sodipodi:ry="6"
       d="m 285,398.36218 a 6,6 0 1 1 -12,0 6,6 0 1 1 12,0 z" />
    <path
       transform="translate(-95,-16)"
       sodipodi:type="arc"
       style="fill:#ff0000;fill-opacity:1;stroke:#ffffff;stroke-width:1;stroke-miterlimit:4;stroke-opacity:1;stroke-dasharray:1, 3;stroke-dashoffset:0"
       id="path2985-48"
       sodipodi:cx="279"
       sodipodi:cy="398.36218"
       sodipodi:rx="6"
       sodipodi:ry="6"
       d="m 285,398.36218 a 6,6 0 1 1 -12,0 6,6 0 1 1 12,0 z" />
    <path
       transform="translate(-128.5,111)"
       sodipodi:type="arc"
       style="fill:#ff0000;fill-opacity:1;stroke:#ffffff;stroke-width:1;stroke-miterlimit:4;stroke-opacity:1;stroke-dasharray:1, 3;stroke-dashoffset:0"
       id="path2985-7-8"
       sodipodi:cx="279"
       sodipodi:cy="398.36218"
       sodipodi:rx="6"
       sodipodi:ry="6"
       d="m 285,398.36218 a 6,6 0 1 1 -12,0 6,6 0 1 1 12,0 z" />
    <path
       transform="translate(-55.5,129)"
       sodipodi:type="arc"
       style="fill:#ff0000;fill-opacity:1;stroke:#ffffff;stroke-width:1;stroke-miterlimit:4;stroke-opacity:1;stroke-dasharray:1, 3;stroke-dashoffset:0"
       id="path2985-9-2"
       sodipodi:cx="279"
       sodipodi:cy="398.36218"
       sodipodi:rx="6"
       sodipodi:ry="6"
       d="m 285,398.36218 a 6,6 0 1 1 -12,0 6,6 0 1 1 12,0 z" />
    <path
       transform="translate(-132.5,57.000001)"
       sodipodi:type="arc"
       style="fill:#ff0000;fill-opacity:1;stroke:#ffffff;stroke-width:1;stroke-miterlimit:4;stroke-opacity:1;stroke-dasharray:1, 3;stroke-dashoffset:0"
       id="path2985-48-4"
       sodipodi:cx="279"
       sodipodi:cy="398.36218"
       sodipodi:rx="6"
       sodipodi:ry="6"
       d="m 285,398.36218 a 6,6 0 1 1 -12,0 6,6 0 1 1 12,0 z" />
    <path
       transform="translate(148,35)"
       sodipodi:type="arc"
       style="fill:#008000;fill-opacity:1;stroke:#ffffff;stroke-width:1;stroke-miterlimit:4;stroke-opacity:1;stroke-dasharray:1, 3;stroke-dashoffset:0"
       id="path2985-4-5"
       sodipodi:cx="279"
       sodipodi:cy="398.36218"
       sodipodi:rx="6"
       sodipodi:ry="6"
       d="m 285,398.36218 a 6,6 0 1 1 -12,0 6,6 0 1 1 12,0 z" />
    <path
       transform="translate(108,61)"
       sodipodi:type="arc"
       style="fill:#008000;fill-opacity:1;stroke:#ffffff;stroke-width:1;stroke-miterlimit:4;stroke-opacity:1;stroke-dasharray:1, 3;stroke-dashoffset:0"
       id="path2985-4-5-2"
       sodipodi:cx="279"
       sodipodi:cy="398.36218"
       sodipodi:rx="6"
       sodipodi:ry="6"
       d="m 285,398.36218 a 6,6 0 1 1 -12,0 6,6 0 1 1 12,0 z" />
    <path
       transform="translate(126,7)"
       sodipodi:type="arc"
       style="fill:#008000;fill-opacity:1;stroke:#ffffff;stroke-width:1;stroke-miterlimit:4;stroke-opacity:1;stroke-dasharray:1, 3;stroke-dashoffset:0"
       id="path2985-4-5-7"
       sodipodi:cx="279"
       sodipodi:cy="398.36218"
       sodipodi:rx="6"
       sodipodi:ry="6"
       d="m 285,398.36218 a 6,6 0 1 1 -12,0 6,6 0 1 1 12,0 z" />
    <path
       style="fill:none;stroke:#000000;stroke-width:1px;stroke-linecap:butt;stroke-linejoin:miter;stroke-opacity:1"
       d="m 222,343.36218 c -24.42634,1.04891 -44.33508,22.38008 -61.8251,39.46356 -10.80107,10.55001 -19.53072,23.62838 -25.26201,37.59684 -8.78507,21.41121 -16.1884,45.30821 -12.91355,68.21875 2.80644,19.63363 12.67639,39.30344 27.00171,53.01988 17.98174,17.21745 43.19896,11.59571 72.96125,4.97291 28.37935,-6.31506 40.6468,-24.82863 44.58209,-45.75671 3.86673,-20.56346 -24.2569,-36.87766 -24.48251,-57.80029 -0.28559,-26.48487 38.60541,-48.9801 29.40619,-73.81766 C 265.00367,351.80583 240.59516,342.56367 222,343.36218 z"
       id="path3786"
       inkscape:connector-curvature="0"
       sodipodi:nodetypes="aaaassaaaa" />
    <path
       style="fill:none;stroke:#000000;stroke-width:1px;stroke-linecap:butt;stroke-linejoin:miter;stroke-opacity:1"
       d="m 478.77934,494.49179 c -10.15766,17.296 -35.17034,24.53881 -55.21875,23.91355 -19.82355,-0.61825 -42.08612,-10.45455 -53.01988,-27.00171 -13.43861,-20.338 -13.67816,-50.19177 -4.97291,-72.96125 7.60463,-19.89072 24.82863,-40.6468 45.75671,-44.58209 20.56346,-3.86673 45.38693,7.63864 57.80029,24.48251 19.10951,25.92999 25.96644,68.37383 9.65454,96.14899 z"
       id="path3786-1"
       inkscape:connector-curvature="0"
       sodipodi:nodetypes="aaaaaaa" />
    <path
       transform="translate(185,43)"
       sodipodi:type="arc"
       style="fill:#008000;fill-opacity:1;stroke:#ffffff;stroke-width:1;stroke-miterlimit:4;stroke-opacity:1;stroke-dasharray:1, 3;stroke-dashoffset:0"
       id="path2985-4-5-7-7"
       sodipodi:cx="279"
       sodipodi:cy="398.36218"
       sodipodi:rx="6"
       sodipodi:ry="6"
       d="m 285,398.36218 a 6,6 0 1 1 -12,0 6,6 0 1 1 12,0 z" />
    <path
       transform="translate(150,75)"
       sodipodi:type="arc"
       style="fill:#008000;fill-opacity:1;stroke:#ffffff;stroke-width:1;stroke-miterlimit:4;stroke-opacity:1;stroke-dasharray:1, 3;stroke-dashoffset:0"
       id="path2985-4-5-7-4"
       sodipodi:cx="279"
       sodipodi:cy="398.36218"
       sodipodi:rx="6"
       sodipodi:ry="6"
       d="m 285,398.36218 a 6,6 0 1 1 -12,0 6,6 0 1 1 12,0 z" />
    <path
       transform="translate(168,5)"
       sodipodi:type="arc"
       style="fill:#008000;fill-opacity:1;stroke:#ffffff;stroke-width:1;stroke-miterlimit:4;stroke-opacity:1;stroke-dasharray:1, 3;stroke-dashoffset:0"
       id="path2985-4-5-7-0"
       sodipodi:cx="279"
       sodipodi:cy="398.36218"
       sodipodi:rx="6"
       sodipodi:ry="6"
       d="m 285,398.36218 a 6,6 0 1 1 -12,0 6,6 0 1 1 12,0 z" />
    <path
       transform="translate(121,92)"
       sodipodi:type="arc"
       style="fill:#008000;fill-opacity:1;stroke:#ffffff;stroke-width:1;stroke-miterlimit:4;stroke-opacity:1;stroke-dasharray:1, 3;stroke-dashoffset:0"
       id="path2985-4-5-7-9"
       sodipodi:cx="279"
       sodipodi:cy="398.36218"
       sodipodi:rx="6"
       sodipodi:ry="6"
       d="m 285,398.36218 a 6,6 0 1 1 -12,0 6,6 0 1 1 12,0 z" />
    <path
       transform="translate(178,82)"
       sodipodi:type="arc"
       style="fill:#008000;fill-opacity:1;stroke:#ffffff;stroke-width:1;stroke-miterlimit:4;stroke-opacity:1;stroke-dasharray:1, 3;stroke-dashoffset:0"
       id="path2985-4-5-7-48"
       sodipodi:cx="279"
       sodipodi:cy="398.36218"
       sodipodi:rx="6"
       sodipodi:ry="6"
       d="m 285,398.36218 a 6,6 0 1 1 -12,0 6,6 0 1 1 12,0 z" />
    <path
       transform="translate(-23,-23)"
       sodipodi:type="arc"
       style="fill:#ff0000;fill-opacity:1;stroke:#ffffff;stroke-width:1;stroke-miterlimit:4;stroke-opacity:1;stroke-dasharray:1, 3;stroke-dashoffset:0"
       id="path2985-7-82"
       sodipodi:cx="279"
       sodipodi:cy="398.36218"
       sodipodi:rx="6"
       sodipodi:ry="6"
       d="m 285,398.36218 a 6,6 0 1 1 -12,0 6,6 0 1 1 12,0 z" />
    <path
       transform="translate(-117,79)"
       sodipodi:type="arc"
       style="fill:#ff0000;fill-opacity:1;stroke:#ffffff;stroke-width:1;stroke-miterlimit:4;stroke-opacity:1;stroke-dasharray:1, 3;stroke-dashoffset:0"
       id="path2985-7-4"
       sodipodi:cx="279"
       sodipodi:cy="398.36218"
       sodipodi:rx="6"
       sodipodi:ry="6"
       d="m 285,398.36218 a 6,6 0 1 1 -12,0 6,6 0 1 1 12,0 z" />
    <flowRoot
       xml:space="preserve"
       id="flowRoot3883"
       style="font-size:16px;font-style:normal;font-weight:normal;line-height:125%;letter-spacing:0px;word-spacing:0px;fill:#000000;fill-opacity:1;stroke:none;font-family:Sans"
       transform="translate(94,25)"><flowRegion
         id="flowRegion3885"><rect
           id="rect3887"
           width="155"
           height="54"
           x="57"
           y="282.36218" /></flowRegion><flowPara
         id="flowPara3889">Set of all propositions</flowPara></flowRoot>    <flowRoot
       xml:space="preserve"
       id="flowRoot3891"
       style="font-size:16px;font-style:normal;font-weight:normal;line-height:125%;letter-spacing:0px;word-spacing:0px;fill:#000000;fill-opacity:1;stroke:none;font-family:Sans"
       transform="translate(-11,49)"><flowRegion
         id="flowRegion3893"><rect
           id="rect3895"
           width="140"
           height="86"
           x="385"
           y="285.36218" /></flowRegion><flowPara
         id="flowPara3897">Set of all rules</flowPara></flowRoot>    <path
       style="fill:none;stroke:#000000;stroke-width:1px;stroke-linecap:butt;stroke-linejoin:miter;stroke-opacity:1;marker-mid:none;marker-end:url(#Arrow1Lend)"
       d="m 223,432.36218 c 0,0 69,28 164,-13"
       id="path3899"
       inkscape:connector-curvature="0"
       sodipodi:nodetypes="cc" />
    <path
       style="fill:none;stroke:#000000;stroke-width:1;stroke-linecap:butt;stroke-linejoin:miter;stroke-opacity:1;stroke-miterlimit:4;stroke-dasharray:4,4;stroke-dashoffset:0"
       d="m 166.69089,412.42324 c -4.46706,9.66972 7.8246,19.8148 11.84432,29.67888 5.25969,12.90685 0.84877,34.52057 16.05935,38.60515 34.36529,4.21473 29.01051,-22.61655 26.76586,-39.13576 -1.5907,-15.86398 19.35219,-39.16436 6.41665,-49.76952 -16.61952,-13.62546 -52.07337,1.11148 -61.08618,20.62125 z"
       id="path3901"
       inkscape:connector-curvature="0"
       sodipodi:nodetypes="aaccaa" />
    <path
       style="fill:none;stroke:#000000;stroke-width:1;stroke-linecap:butt;stroke-linejoin:miter;stroke-miterlimit:4;stroke-opacity:1;stroke-dasharray:4, 4;stroke-dashoffset:0"
       d="m 129.8189,453.95833 c -9.62625,24.86911 34.63813,57.9365 60.66953,52.14827 17.76119,-3.9493 32.0737,-34.34881 22.41665,-49.76952 -14.70547,-23.48218 -73.08466,-28.21735 -83.08618,-2.37875 z"
       id="path3901-5"
       inkscape:connector-curvature="0"
       sodipodi:nodetypes="aaaa" />
    <path
       style="fill:none;stroke:#000000;stroke-width:1px;stroke-linecap:butt;stroke-linejoin:miter;stroke-opacity:1;marker-mid:none;marker-end:url(#Arrow1Lend)"
       d="m 206.5,493.32687 c 0,0 42,37 165,-9"
       id="path3899-7-2"
       inkscape:connector-curvature="0"
       sodipodi:nodetypes="cc" />
    <flowRoot
       xml:space="preserve"
       id="flowRoot3037"
       style="font-size:16px;font-style:normal;font-weight:normal;text-align:center;line-height:125%;letter-spacing:0px;word-spacing:0px;text-anchor:middle;fill:#000000;fill-opacity:1;stroke:none;font-family:Sans"
       transform="translate(-1,-16)"><flowRegion
         id="flowRegion3039"><rect
           id="rect3041"
           width="99"
           height="36"
           x="43"
           y="359.36218"
           style="text-align:center;text-anchor:middle" /></flowRegion><flowPara
         id="flowPara3043">1 inference</flowPara><flowPara
         id="flowPara3045">context</flowPara></flowRoot>    <path
       style="fill:none;stroke:#000000;stroke-width:1px;stroke-linecap:butt;stroke-linejoin:miter;stroke-opacity:1"
       d="m 124,373.36218 50,30"
       id="path3047"
       inkscape:connector-curvature="0" />
    <path
       style="fill:none;stroke:#000000;stroke-width:1;stroke-linecap:butt;stroke-linejoin:miter;stroke-miterlimit:4;stroke-opacity:1;stroke-dasharray:4, 4;stroke-dashoffset:0"
       d="m 389.66322,397.63721 c -10.45869,19.71261 29.05689,58.30463 48.05935,46.60515 11.63876,-7.16578 -2.11037,-29.95326 -12.23414,-39.13576 -9.03547,-8.19539 -30.10802,-18.24519 -35.82521,-7.46939 z"
       id="path3901-1"
       inkscape:connector-curvature="0"
       sodipodi:nodetypes="aaaa" />
    <path
       style="fill:none;stroke:#000000;stroke-width:1;stroke-linecap:butt;stroke-linejoin:miter;stroke-miterlimit:4;stroke-opacity:1;stroke-dasharray:4, 4;stroke-dashoffset:0"
       d="m 371.57394,453.65504 c -13.25574,16.51164 17.291,45.39811 37.66953,51.14827 21.96002,6.19641 64.68628,-2.98738 63.41665,-25.76952 -1.42979,-25.65603 -78.72898,-53.22737 -101.08618,-25.37875 z"
       id="path3901-5-7"
       inkscape:connector-curvature="0"
       sodipodi:nodetypes="sass" />
  </g>
</svg>
