<?xml version="1.0" encoding="UTF-8" standalone="no"?>
<!-- Created with Inkscape (http://www.inkscape.org/) -->
<svg
   xmlns:dc="http://purl.org/dc/elements/1.1/"
   xmlns:cc="http://creativecommons.org/ns#"
   xmlns:rdf="http://www.w3.org/1999/02/22-rdf-syntax-ns#"
   xmlns:svg="http://www.w3.org/2000/svg"
   xmlns="http://www.w3.org/2000/svg"
   xmlns:sodipodi="http://sodipodi.sourceforge.net/DTD/sodipodi-0.dtd"
   xmlns:inkscape="http://www.inkscape.org/namespaces/inkscape"
   width="744.09448819"
   height="1052.3622047"
   id="svg2"
   sodipodi:version="0.32"
   inkscape:version="0.46"
   sodipodi:docname="rich-vs-powerful.svg"
   inkscape:output_extension="org.inkscape.output.svg.inkscape">
  <defs
     id="defs4">
    <inkscape:perspective
       sodipodi:type="inkscape:persp3d"
       inkscape:vp_x="0 : 526.18109 : 1"
       inkscape:vp_y="0 : 1000 : 0"
       inkscape:vp_z="744.09448 : 526.18109 : 1"
       inkscape:persp3d-origin="372.04724 : 350.78739 : 1"
       id="perspective10" />
    <inkscape:perspective
       id="perspective3166"
       inkscape:persp3d-origin="372.04724 : 350.78739 : 1"
       inkscape:vp_z="744.09448 : 526.18109 : 1"
       inkscape:vp_y="0 : 1000 : 0"
       inkscape:vp_x="0 : 526.18109 : 1"
       sodipodi:type="inkscape:persp3d" />
  </defs>
  <sodipodi:namedview
     id="base"
     pagecolor="#ffffff"
     bordercolor="#666666"
     borderopacity="1.0"
     gridtolerance="10000"
     guidetolerance="10"
     objecttolerance="10"
     inkscape:pageopacity="0.0"
     inkscape:pageshadow="2"
     inkscape:zoom="1"
     inkscape:cx="375"
     inkscape:cy="500.57281"
     inkscape:document-units="px"
     inkscape:current-layer="layer1"
     showgrid="false"
     inkscape:window-width="1024"
     inkscape:window-height="745"
     inkscape:window-x="-4"
     inkscape:window-y="-4" />
  <metadata
     id="metadata7">
    <rdf:RDF>
      <cc:Work
         rdf:about="">
        <dc:format>image/svg+xml</dc:format>
        <dc:type
           rdf:resource="http://purl.org/dc/dcmitype/StillImage" />
      </cc:Work>
    </rdf:RDF>
  </metadata>
  <g
     inkscape:label="Layer 1"
     inkscape:groupmode="layer"
     id="layer1">
    <rect
       style="opacity:0.74418604;fill:none;fill-opacity:1;stroke:#000000;stroke-width:1.10847998;stroke-miterlimit:4;stroke-dasharray:none;stroke-dashoffset:0;stroke-opacity:1"
       id="rect2385"
       width="179.2"
       height="179.2"
       x="223.03702"
       y="465.88953" />
    <path
       sodipodi:type="arc"
       style="opacity:0.74418604;fill:none;fill-opacity:1;stroke:#000000;stroke-width:1.73199999;stroke-miterlimit:4;stroke-dasharray:none;stroke-dashoffset:0;stroke-opacity:1"
       id="path3157"
       sodipodi:cx="260"
       sodipodi:cy="545.36218"
       sodipodi:rx="3"
       sodipodi:ry="2"
       d="M 263,545.36218 A 3,2 0 1 1 257,545.36218 A 3,2 0 1 1 263,545.36218 z"
       transform="matrix(0.8,0,0,0.8,60.637012,112.79978)" />
    <path
       sodipodi:type="arc"
       style="opacity:0.74418604;fill:none;fill-opacity:1;stroke:#000000;stroke-width:1.73199999;stroke-miterlimit:4;stroke-dasharray:none;stroke-dashoffset:0;stroke-opacity:1"
       id="path3172"
       sodipodi:cx="260"
       sodipodi:cy="545.36218"
       sodipodi:rx="3"
       sodipodi:ry="2"
       d="M 263,545.36218 A 3,2 0 1 1 257,545.36218 A 3,2 0 1 1 263,545.36218 z"
       transform="matrix(0.8,0,0,0.8,116.63701,94.39978)" />
    <path
       sodipodi:type="arc"
       style="opacity:0.74418604;fill:none;fill-opacity:1;stroke:#000000;stroke-width:1.73199999;stroke-miterlimit:4;stroke-dasharray:none;stroke-dashoffset:0;stroke-opacity:1"
       id="path3174"
       sodipodi:cx="260"
       sodipodi:cy="545.36218"
       sodipodi:rx="3"
       sodipodi:ry="2"
       d="M 263,545.36218 A 3,2 0 1 1 257,545.36218 A 3,2 0 1 1 263,545.36218 z"
       transform="matrix(0.8,0,0,0.8,84.637012,141.59978)" />
    <path
       sodipodi:type="arc"
       style="opacity:0.74418604;fill:none;fill-opacity:1;stroke:#000000;stroke-width:1.73199999;stroke-miterlimit:4;stroke-dasharray:none;stroke-dashoffset:0;stroke-opacity:1"
       id="path3176"
       sodipodi:cx="260"
       sodipodi:cy="545.36218"
       sodipodi:rx="3"
       sodipodi:ry="2"
       d="M 263,545.36218 A 3,2 0 1 1 257,545.36218 A 3,2 0 1 1 263,545.36218 z"
       transform="matrix(0.8,0,0,0.8,43.037012,166.39978)" />
    <path
       sodipodi:type="arc"
       style="opacity:0.74418604;fill:none;fill-opacity:1;stroke:#000000;stroke-width:1.73199999;stroke-miterlimit:4;stroke-dasharray:none;stroke-dashoffset:0;stroke-opacity:1"
       id="path3178"
       sodipodi:cx="260"
       sodipodi:cy="545.36218"
       sodipodi:rx="3"
       sodipodi:ry="2"
       d="M 263,545.36218 A 3,2 0 1 1 257,545.36218 A 3,2 0 1 1 263,545.36218 z"
       transform="matrix(0.8,0,0,0.8,107.83701,115.99978)" />
    <path
       sodipodi:type="arc"
       style="opacity:0.74418604;fill:none;fill-opacity:1;stroke:#000000;stroke-width:1.73199999;stroke-miterlimit:4;stroke-dasharray:none;stroke-dashoffset:0;stroke-opacity:1"
       id="path3180"
       sodipodi:cx="260"
       sodipodi:cy="545.36218"
       sodipodi:rx="3"
       sodipodi:ry="2"
       d="M 263,545.36218 A 3,2 0 1 1 257,545.36218 A 3,2 0 1 1 263,545.36218 z"
       transform="matrix(0.8,0,0,0.8,140.63701,74.39978)" />
    <path
       sodipodi:type="arc"
       style="opacity:0.74418604;fill:none;fill-opacity:1;stroke:#000000;stroke-width:1.73199999;stroke-miterlimit:4;stroke-dasharray:none;stroke-dashoffset:0;stroke-opacity:1"
       id="path3182"
       sodipodi:cx="260"
       sodipodi:cy="545.36218"
       sodipodi:rx="3"
       sodipodi:ry="2"
       d="M 263,545.36218 A 3,2 0 1 1 257,545.36218 A 3,2 0 1 1 263,545.36218 z"
       transform="matrix(0.8,0,0,0.8,59.037012,151.19978)" />
    <path
       sodipodi:type="arc"
       style="opacity:0.74418604;fill:none;fill-opacity:1;stroke:#000000;stroke-width:1.73199999;stroke-miterlimit:4;stroke-dasharray:none;stroke-dashoffset:0;stroke-opacity:1"
       id="path3184"
       sodipodi:cx="260"
       sodipodi:cy="545.36218"
       sodipodi:rx="3"
       sodipodi:ry="2"
       d="M 263,545.36218 A 3,2 0 1 1 257,545.36218 A 3,2 0 1 1 263,545.36218 z"
       transform="matrix(0.8,0,0,0.8,66.237012,142.39978)" />
    <path
       sodipodi:type="arc"
       style="opacity:0.74418604;fill:none;fill-opacity:1;stroke:#000000;stroke-width:1.73199999;stroke-miterlimit:4;stroke-dasharray:none;stroke-dashoffset:0;stroke-opacity:1"
       id="path3186"
       sodipodi:cx="260"
       sodipodi:cy="545.36218"
       sodipodi:rx="3"
       sodipodi:ry="2"
       d="M 263,545.36218 A 3,2 0 1 1 257,545.36218 A 3,2 0 1 1 263,545.36218 z"
       transform="matrix(0.8,0,0,0.8,126.23701,84.79978)" />
    <path
       sodipodi:type="arc"
       style="opacity:0.74418604;fill:none;fill-opacity:1;stroke:#000000;stroke-width:1.73199999;stroke-miterlimit:4;stroke-dasharray:none;stroke-dashoffset:0;stroke-opacity:1"
       id="path3188"
       sodipodi:cx="260"
       sodipodi:cy="545.36218"
       sodipodi:rx="3"
       sodipodi:ry="2"
       d="M 263,545.36218 A 3,2 0 1 1 257,545.36218 A 3,2 0 1 1 263,545.36218 z"
       transform="matrix(0.8,0,0,0.8,89.437012,128.79978)" />
    <path
       sodipodi:type="arc"
       style="opacity:0.74418604;fill:none;fill-opacity:1;stroke:#000000;stroke-width:1.73199999;stroke-miterlimit:4;stroke-dasharray:none;stroke-dashoffset:0;stroke-opacity:1"
       id="path3190"
       sodipodi:cx="260"
       sodipodi:cy="545.36218"
       sodipodi:rx="3"
       sodipodi:ry="2"
       d="M 263,545.36218 A 3,2 0 1 1 257,545.36218 A 3,2 0 1 1 263,545.36218 z"
       transform="matrix(0.8,0,0,0.8,108.63701,130.39978)" />
    <path
       sodipodi:type="arc"
       style="opacity:0.74418604;fill:none;fill-opacity:1;stroke:#000000;stroke-width:1.73199999;stroke-miterlimit:4;stroke-dasharray:none;stroke-dashoffset:0;stroke-opacity:1"
       id="path3192"
       sodipodi:cx="260"
       sodipodi:cy="545.36218"
       sodipodi:rx="3"
       sodipodi:ry="2"
       d="M 263,545.36218 A 3,2 0 1 1 257,545.36218 A 3,2 0 1 1 263,545.36218 z"
       transform="matrix(0.8,0,0,0.8,118.23701,104.79978)" />
    <path
       sodipodi:type="arc"
       style="opacity:0.74418604;fill:none;fill-opacity:1;stroke:#000000;stroke-width:1.73199999;stroke-miterlimit:4;stroke-dasharray:none;stroke-dashoffset:0;stroke-opacity:1"
       id="path3194"
       sodipodi:cx="260"
       sodipodi:cy="545.36218"
       sodipodi:rx="3"
       sodipodi:ry="2"
       d="M 263,545.36218 A 3,2 0 1 1 257,545.36218 A 3,2 0 1 1 263,545.36218 z"
       transform="matrix(0.8,0,0,0.8,143.83701,91.19978)" />
    <path
       sodipodi:type="arc"
       style="opacity:0.74418604;fill:none;fill-opacity:1;stroke:#000000;stroke-width:1.73199999;stroke-miterlimit:4;stroke-dasharray:none;stroke-dashoffset:0;stroke-opacity:1"
       id="path3196"
       sodipodi:cx="260"
       sodipodi:cy="545.36218"
       sodipodi:rx="3"
       sodipodi:ry="2"
       d="M 263,545.36218 A 3,2 0 1 1 257,545.36218 A 3,2 0 1 1 263,545.36218 z"
       transform="matrix(0.8,0,0,0.8,164.63701,79.19978)" />
    <path
       sodipodi:type="arc"
       style="opacity:0.74418604;fill:none;fill-opacity:1;stroke:#000000;stroke-width:1.73199999;stroke-miterlimit:4;stroke-dasharray:none;stroke-dashoffset:0;stroke-opacity:1"
       id="path3198"
       sodipodi:cx="260"
       sodipodi:cy="545.36218"
       sodipodi:rx="3"
       sodipodi:ry="2"
       d="M 263,545.36218 A 3,2 0 1 1 257,545.36218 A 3,2 0 1 1 263,545.36218 z"
       transform="matrix(0.8,0,0,0.8,163.83701,44.79978)" />
    <path
       sodipodi:type="arc"
       style="opacity:0.74418604;fill:none;fill-opacity:1;stroke:#000000;stroke-width:1.73199999;stroke-miterlimit:4;stroke-dasharray:none;stroke-dashoffset:0;stroke-opacity:1"
       id="path3200"
       sodipodi:cx="260"
       sodipodi:cy="545.36218"
       sodipodi:rx="3"
       sodipodi:ry="2"
       d="M 263,545.36218 A 3,2 0 1 1 257,545.36218 A 3,2 0 1 1 263,545.36218 z"
       transform="matrix(0.8,0,0,0.8,132.63701,99.19978)" />
    <path
       sodipodi:type="arc"
       style="opacity:0.74418604;fill:none;fill-opacity:1;stroke:#000000;stroke-width:1.73199999;stroke-miterlimit:4;stroke-dasharray:none;stroke-dashoffset:0;stroke-opacity:1"
       id="path3202"
       sodipodi:cx="260"
       sodipodi:cy="545.36218"
       sodipodi:rx="3"
       sodipodi:ry="2"
       d="M 263,545.36218 A 3,2 0 1 1 257,545.36218 A 3,2 0 1 1 263,545.36218 z"
       transform="matrix(0.8,0,0,0.8,95.837012,114.39978)" />
    <path
       sodipodi:type="arc"
       style="opacity:0.74418604;fill:none;fill-opacity:1;stroke:#000000;stroke-width:1.73199999;stroke-miterlimit:4;stroke-dasharray:none;stroke-dashoffset:0;stroke-opacity:1"
       id="path3204"
       sodipodi:cx="260"
       sodipodi:cy="545.36218"
       sodipodi:rx="3"
       sodipodi:ry="2"
       d="M 263,545.36218 A 3,2 0 1 1 257,545.36218 A 3,2 0 1 1 263,545.36218 z"
       transform="matrix(0.8,0,0,0.8,74.237012,145.59978)" />
    <path
       sodipodi:type="arc"
       style="opacity:0.74418604;fill:none;fill-opacity:1;stroke:#000000;stroke-width:1.73199999;stroke-miterlimit:4;stroke-dasharray:none;stroke-dashoffset:0;stroke-opacity:1"
       id="path3206"
       sodipodi:cx="260"
       sodipodi:cy="545.36218"
       sodipodi:rx="3"
       sodipodi:ry="2"
       d="M 263,545.36218 A 3,2 0 1 1 257,545.36218 A 3,2 0 1 1 263,545.36218 z"
       transform="matrix(0.8,0,0,0.8,71.037012,165.59978)" />
    <path
       sodipodi:type="arc"
       style="opacity:0.74418604;fill:none;fill-opacity:1;stroke:#000000;stroke-width:1.73199999;stroke-miterlimit:4;stroke-dasharray:none;stroke-dashoffset:0;stroke-opacity:1"
       id="path3208"
       sodipodi:cx="260"
       sodipodi:cy="545.36218"
       sodipodi:rx="3"
       sodipodi:ry="2"
       d="M 263,545.36218 A 3,2 0 1 1 257,545.36218 A 3,2 0 1 1 263,545.36218 z"
       transform="matrix(0.8,0,0,0.8,45.437012,182.39978)" />
    <path
       sodipodi:type="arc"
       style="opacity:0.74418604;fill:none;fill-opacity:1;stroke:#000000;stroke-width:1.73199999;stroke-miterlimit:4;stroke-dasharray:none;stroke-dashoffset:0;stroke-opacity:1"
       id="path3210"
       sodipodi:cx="260"
       sodipodi:cy="545.36218"
       sodipodi:rx="3"
       sodipodi:ry="2"
       d="M 263,545.36218 A 3,2 0 1 1 257,545.36218 A 3,2 0 1 1 263,545.36218 z"
       transform="matrix(0.8,0,0,0.8,24.637012,189.59978)" />
    <path
       sodipodi:type="arc"
       style="opacity:0.74418604;fill:none;fill-opacity:1;stroke:#000000;stroke-width:1.73199999;stroke-miterlimit:4;stroke-dasharray:none;stroke-dashoffset:0;stroke-opacity:1"
       id="path3212"
       sodipodi:cx="260"
       sodipodi:cy="545.36218"
       sodipodi:rx="3"
       sodipodi:ry="2"
       d="M 263,545.36218 A 3,2 0 1 1 257,545.36218 A 3,2 0 1 1 263,545.36218 z"
       transform="matrix(0.8,0,0,0.8,30.237012,162.39978)" />
    <path
       sodipodi:type="arc"
       style="opacity:0.74418604;fill:none;fill-opacity:1;stroke:#000000;stroke-width:1.73199999;stroke-miterlimit:4;stroke-dasharray:none;stroke-dashoffset:0;stroke-opacity:1"
       id="path3214"
       sodipodi:cx="260"
       sodipodi:cy="545.36218"
       sodipodi:rx="3"
       sodipodi:ry="2"
       d="M 263,545.36218 A 3,2 0 1 1 257,545.36218 A 3,2 0 1 1 263,545.36218 z"
       transform="matrix(0.8,0,0,0.8,39.837012,193.59978)" />
    <path
       sodipodi:type="arc"
       style="opacity:0.74418604;fill:none;fill-opacity:1;stroke:#000000;stroke-width:1.73199999;stroke-miterlimit:4;stroke-dasharray:none;stroke-dashoffset:0;stroke-opacity:1"
       id="path3216"
       sodipodi:cx="260"
       sodipodi:cy="545.36218"
       sodipodi:rx="3"
       sodipodi:ry="2"
       d="M 263,545.36218 A 3,2 0 1 1 257,545.36218 A 3,2 0 1 1 263,545.36218 z"
       transform="matrix(0.8,0,0,0.8,59.837012,169.59978)" />
    <path
       sodipodi:type="arc"
       style="opacity:0.74418604;fill:none;fill-opacity:1;stroke:#000000;stroke-width:1.73199999;stroke-miterlimit:4;stroke-dasharray:none;stroke-dashoffset:0;stroke-opacity:1"
       id="path3218"
       sodipodi:cx="260"
       sodipodi:cy="545.36218"
       sodipodi:rx="3"
       sodipodi:ry="2"
       d="M 263,545.36218 A 3,2 0 1 1 257,545.36218 A 3,2 0 1 1 263,545.36218 z"
       transform="matrix(0.8,0,0,0.8,59.837012,142.39978)" />
    <path
       sodipodi:type="arc"
       style="opacity:0.74418604;fill:none;fill-opacity:1;stroke:#000000;stroke-width:1.73199999;stroke-miterlimit:4;stroke-dasharray:none;stroke-dashoffset:0;stroke-opacity:1"
       id="path3220"
       sodipodi:cx="260"
       sodipodi:cy="545.36218"
       sodipodi:rx="3"
       sodipodi:ry="2"
       d="M 263,545.36218 A 3,2 0 1 1 257,545.36218 A 3,2 0 1 1 263,545.36218 z"
       transform="matrix(0.8,0,0,0.8,72.637012,118.39978)" />
    <path
       sodipodi:type="arc"
       style="opacity:0.74418604;fill:none;fill-opacity:1;stroke:#000000;stroke-width:1.73199999;stroke-miterlimit:4;stroke-dasharray:none;stroke-dashoffset:0;stroke-opacity:1"
       id="path3222"
       sodipodi:cx="260"
       sodipodi:cy="545.36218"
       sodipodi:rx="3"
       sodipodi:ry="2"
       d="M 263,545.36218 A 3,2 0 1 1 257,545.36218 A 3,2 0 1 1 263,545.36218 z"
       transform="matrix(0.8,0,0,0.8,91.037012,160.79978)" />
    <path
       sodipodi:type="arc"
       style="opacity:0.74418604;fill:none;fill-opacity:1;stroke:#000000;stroke-width:1.73199999;stroke-miterlimit:4;stroke-dasharray:none;stroke-dashoffset:0;stroke-opacity:1"
       id="path3224"
       sodipodi:cx="260"
       sodipodi:cy="545.36218"
       sodipodi:rx="3"
       sodipodi:ry="2"
       d="M 263,545.36218 A 3,2 0 1 1 257,545.36218 A 3,2 0 1 1 263,545.36218 z"
       transform="matrix(0.8,0,0,0.8,115.83701,147.19978)" />
    <path
       sodipodi:type="arc"
       style="opacity:0.74418604;fill:none;fill-opacity:1;stroke:#000000;stroke-width:1.73199999;stroke-miterlimit:4;stroke-dasharray:none;stroke-dashoffset:0;stroke-opacity:1"
       id="path3226"
       sodipodi:cx="260"
       sodipodi:cy="545.36218"
       sodipodi:rx="3"
       sodipodi:ry="2"
       d="M 263,545.36218 A 3,2 0 1 1 257,545.36218 A 3,2 0 1 1 263,545.36218 z"
       transform="matrix(0.8,0,0,0.8,88.637012,179.19978)" />
    <path
       sodipodi:type="arc"
       style="opacity:0.74418604;fill:none;fill-opacity:1;stroke:#000000;stroke-width:1.73199999;stroke-miterlimit:4;stroke-dasharray:none;stroke-dashoffset:0;stroke-opacity:1"
       id="path3228"
       sodipodi:cx="260"
       sodipodi:cy="545.36218"
       sodipodi:rx="3"
       sodipodi:ry="2"
       d="M 263,545.36218 A 3,2 0 1 1 257,545.36218 A 3,2 0 1 1 263,545.36218 z"
       transform="matrix(0.8,0,0,0.8,64.637012,183.19978)" />
    <path
       sodipodi:type="arc"
       style="opacity:0.74418604;fill:none;fill-opacity:1;stroke:#000000;stroke-width:1.73199999;stroke-miterlimit:4;stroke-dasharray:none;stroke-dashoffset:0;stroke-opacity:1"
       id="path3230"
       sodipodi:cx="260"
       sodipodi:cy="545.36218"
       sodipodi:rx="3"
       sodipodi:ry="2"
       d="M 263,545.36218 A 3,2 0 1 1 257,545.36218 A 3,2 0 1 1 263,545.36218 z"
       transform="matrix(0.8,0,0,0.8,64.637012,154.39978)" />
    <path
       sodipodi:type="arc"
       style="opacity:0.74418604;fill:none;fill-opacity:1;stroke:#000000;stroke-width:1.73199999;stroke-miterlimit:4;stroke-dasharray:none;stroke-dashoffset:0;stroke-opacity:1"
       id="path3232"
       sodipodi:cx="260"
       sodipodi:cy="545.36218"
       sodipodi:rx="3"
       sodipodi:ry="2"
       d="M 263,545.36218 A 3,2 0 1 1 257,545.36218 A 3,2 0 1 1 263,545.36218 z"
       transform="matrix(0.8,0,0,0.8,67.037012,130.39978)" />
    <text
       xml:space="preserve"
       style="font-size:14.39999962px;font-style:normal;font-variant:normal;font-weight:normal;font-stretch:normal;text-align:start;line-height:100%;writing-mode:lr-tb;text-anchor:start;fill:#000000;fill-opacity:1;stroke:none;stroke-width:1px;stroke-linecap:butt;stroke-linejoin:miter;stroke-opacity:1;font-family:Arial;-inkscape-font-specification:Arial"
       x="306.237"
       y="664.28955"
       id="text3234"
       sodipodi:linespacing="100%"><tspan
         sodipodi:role="line"
         id="tspan3236"
         x="306.237"
         y="664.28955">rich</tspan></text>
    <text
       xml:space="preserve"
       style="font-size:14.39999962px;font-style:normal;font-variant:normal;font-weight:normal;font-stretch:normal;text-align:start;line-height:100%;writing-mode:lr-tb;text-anchor:start;fill:#000000;fill-opacity:1;stroke:none;stroke-width:1px;stroke-linecap:butt;stroke-linejoin:miter;stroke-opacity:1;font-family:Arial;-inkscape-font-specification:Arial"
       x="-583.6825"
       y="210.85185"
       id="text3238"
       sodipodi:linespacing="100%"
       transform="matrix(0,-1,1,0,0,0)"><tspan
         sodipodi:role="line"
         id="tspan3240"
         x="-583.6825"
         y="210.85185">powerful</tspan></text>
    <path
       sodipodi:type="arc"
       style="opacity:0.74418604;fill:none;fill-opacity:1;stroke:#000000;stroke-width:1.73199999;stroke-miterlimit:4;stroke-dasharray:none;stroke-dashoffset:0;stroke-opacity:1"
       id="path3242"
       sodipodi:cx="260"
       sodipodi:cy="545.36218"
       sodipodi:rx="3"
       sodipodi:ry="2"
       d="M 263,545.36218 A 3,2 0 1 1 257,545.36218 A 3,2 0 1 1 263,545.36218 z"
       transform="matrix(0.8,0,0,0.8,43.837012,65.59978)" />
    <path
       sodipodi:type="arc"
       style="opacity:0.74418604;fill:none;fill-opacity:1;stroke:#000000;stroke-width:1.73199999;stroke-miterlimit:4;stroke-dasharray:none;stroke-dashoffset:0;stroke-opacity:1"
       id="path3244"
       sodipodi:cx="260"
       sodipodi:cy="545.36218"
       sodipodi:rx="3"
       sodipodi:ry="2"
       d="M 263,545.36218 A 3,2 0 1 1 257,545.36218 A 3,2 0 1 1 263,545.36218 z"
       transform="matrix(0.8,0,0,0.8,161.43701,127.99978)" />
    <path
       sodipodi:type="arc"
       style="opacity:0.74418604;fill:none;fill-opacity:1;stroke:#000000;stroke-width:1.73199999;stroke-miterlimit:4;stroke-dasharray:none;stroke-dashoffset:0;stroke-opacity:1"
       id="path3246"
       sodipodi:cx="260"
       sodipodi:cy="545.36218"
       sodipodi:rx="3"
       sodipodi:ry="2"
       d="M 263,545.36218 A 3,2 0 1 1 257,545.36218 A 3,2 0 1 1 263,545.36218 z"
       transform="matrix(0.8,0,0,0.8,81.437012,134.39978)" />
    <path
       sodipodi:type="arc"
       style="opacity:0.74418604;fill:none;fill-opacity:1;stroke:#000000;stroke-width:1.73199999;stroke-miterlimit:4;stroke-dasharray:none;stroke-dashoffset:0;stroke-opacity:1"
       id="path3248"
       sodipodi:cx="260"
       sodipodi:cy="545.36218"
       sodipodi:rx="3"
       sodipodi:ry="2"
       d="M 263,545.36218 A 3,2 0 1 1 257,545.36218 A 3,2 0 1 1 263,545.36218 z"
       transform="matrix(0.8,0,0,0.8,83.837012,145.59978)" />
    <path
       sodipodi:type="arc"
       style="opacity:0.74418604;fill:none;fill-opacity:1;stroke:#000000;stroke-width:1.73199999;stroke-miterlimit:4;stroke-dasharray:none;stroke-dashoffset:0;stroke-opacity:1"
       id="path3250"
       sodipodi:cx="260"
       sodipodi:cy="545.36218"
       sodipodi:rx="3"
       sodipodi:ry="2"
       d="M 263,545.36218 A 3,2 0 1 1 257,545.36218 A 3,2 0 1 1 263,545.36218 z"
       transform="matrix(0.8,0,0,0.8,54.237012,159.19978)" />
    <path
       sodipodi:type="arc"
       style="opacity:0.74418604;fill:none;fill-opacity:1;stroke:#000000;stroke-width:1.73199999;stroke-miterlimit:4;stroke-dasharray:none;stroke-dashoffset:0;stroke-opacity:1"
       id="path3252"
       sodipodi:cx="260"
       sodipodi:cy="545.36218"
       sodipodi:rx="3"
       sodipodi:ry="2"
       d="M 263,545.36218 A 3,2 0 1 1 257,545.36218 A 3,2 0 1 1 263,545.36218 z"
       transform="matrix(0.8,0,0,0.8,27.837012,174.39978)" />
    <path
       sodipodi:type="arc"
       style="opacity:0.74418604;fill:none;fill-opacity:1;stroke:#000000;stroke-width:1.73199999;stroke-miterlimit:4;stroke-dasharray:none;stroke-dashoffset:0;stroke-opacity:1"
       id="path3254"
       sodipodi:cx="260"
       sodipodi:cy="545.36218"
       sodipodi:rx="3"
       sodipodi:ry="2"
       d="M 263,545.36218 A 3,2 0 1 1 257,545.36218 A 3,2 0 1 1 263,545.36218 z"
       transform="matrix(0.8,0,0,0.8,37.437012,175.19978)" />
    <path
       style="fill:none;fill-rule:evenodd;stroke:#ff0000;stroke-width:0.80000001;stroke-linecap:butt;stroke-linejoin:miter;stroke-miterlimit:4;stroke-dasharray:2.4, 0.8;stroke-dashoffset:0;stroke-opacity:1"
       d="M 221.43701,645.08952 L 401.43701,465.88952"
       id="path3256" />
    <text
       xml:space="preserve"
       style="font-size:14.39999962px;font-style:normal;font-variant:normal;font-weight:normal;font-stretch:normal;text-align:start;line-height:100%;writing-mode:lr-tb;text-anchor:start;fill:#000000;fill-opacity:1;stroke:none;stroke-width:1px;stroke-linecap:butt;stroke-linejoin:miter;stroke-opacity:1;font-family:Arial;-inkscape-font-specification:Arial"
       x="209.43701"
       y="657.88953"
       id="text3258"
       sodipodi:linespacing="100%"><tspan
         sodipodi:role="line"
         id="tspan3260"
         x="209.43701"
         y="657.88953">0</tspan></text>
    <text
       xml:space="preserve"
       style="font-size:14.39999962px;font-style:normal;font-variant:normal;font-weight:normal;font-stretch:normal;text-align:start;line-height:100%;writing-mode:lr-tb;text-anchor:start;fill:#000000;fill-opacity:1;stroke:none;stroke-width:1px;stroke-linecap:butt;stroke-linejoin:miter;stroke-opacity:1;font-family:Arial;-inkscape-font-specification:Arial"
       x="400.63702"
       y="661.08954"
       id="text3262"
       sodipodi:linespacing="100%"><tspan
         sodipodi:role="line"
         id="tspan3264"
         x="400.63702"
         y="661.08954">1</tspan></text>
    <text
       xml:space="preserve"
       style="font-size:14.39999962px;font-style:normal;font-variant:normal;font-weight:normal;font-stretch:normal;text-align:start;line-height:100%;writing-mode:lr-tb;text-anchor:start;fill:#000000;fill-opacity:1;stroke:none;stroke-width:1px;stroke-linecap:butt;stroke-linejoin:miter;stroke-opacity:1;font-family:Arial;-inkscape-font-specification:Arial"
       x="208.63701"
       y="473.88953"
       id="text3266"
       sodipodi:linespacing="100%"><tspan
         sodipodi:role="line"
         id="tspan3268"
         x="208.63701"
         y="473.88953">1</tspan></text>
  </g>
</svg>
