<?xml version="1.0" encoding="UTF-8" standalone="no"?>
<!-- Created with Inkscape (http://www.inkscape.org/) -->

<svg
   xmlns:dc="http://purl.org/dc/elements/1.1/"
   xmlns:cc="http://creativecommons.org/ns#"
   xmlns:rdf="http://www.w3.org/1999/02/22-rdf-syntax-ns#"
   xmlns:svg="http://www.w3.org/2000/svg"
   xmlns="http://www.w3.org/2000/svg"
   xmlns:sodipodi="http://sodipodi.sourceforge.net/DTD/sodipodi-0.dtd"
   xmlns:inkscape="http://www.inkscape.org/namespaces/inkscape"
   width="744.09448819"
   height="1052.3622047"
   id="svg2"
   version="1.1"
   inkscape:version="0.48.2 r9819"
   sodipodi:docname="rule-recommendation.svg"
   inkscape:export-filename="C:\LEdProjects\G0\rule-recommendation.png"
   inkscape:export-xdpi="400"
   inkscape:export-ydpi="400">
  <defs
     id="defs4">
    <marker
       inkscape:stockid="Arrow2Send"
       orient="auto"
       refY="0.0"
       refX="0.0"
       id="Arrow2Send"
       style="overflow:visible;">
      <path
         id="path4704"
         style="font-size:12.0;fill-rule:evenodd;stroke-width:0.62500000;stroke-linejoin:round;"
         d="M 8.7185878,4.0337352 L -2.2072895,0.016013256 L 8.7185884,-4.0017078 C 6.9730900,-1.6296469 6.9831476,1.6157441 8.7185878,4.0337352 z "
         transform="scale(0.3) rotate(180) translate(-2.3,0)" />
    </marker>
    <marker
       inkscape:stockid="Arrow1Send"
       orient="auto"
       refY="0.0"
       refX="0.0"
       id="Arrow1Send"
       style="overflow:visible;">
      <path
         id="path4686"
         d="M 0.0,0.0 L 5.0,-5.0 L -12.5,0.0 L 5.0,5.0 L 0.0,0.0 z "
         style="fill-rule:evenodd;stroke:#000000;stroke-width:1.0pt;marker-start:none;"
         transform="scale(0.2) rotate(180) translate(6,0)" />
    </marker>
    <marker
       inkscape:stockid="Arrow1Mend"
       orient="auto"
       refY="0.0"
       refX="0.0"
       id="Arrow1Mend"
       style="overflow:visible;">
      <path
         id="path4680"
         d="M 0.0,0.0 L 5.0,-5.0 L -12.5,0.0 L 5.0,5.0 L 0.0,0.0 z "
         style="fill-rule:evenodd;stroke:#000000;stroke-width:1.0pt;marker-start:none;"
         transform="scale(0.4) rotate(180) translate(10,0)" />
    </marker>
    <marker
       inkscape:stockid="Arrow2Lend"
       orient="auto"
       refY="0.0"
       refX="0.0"
       id="Arrow2Lend"
       style="overflow:visible;">
      <path
         id="path3833"
         style="font-size:12.0;fill-rule:evenodd;stroke-width:0.62500000;stroke-linejoin:round;"
         d="M 8.7185878,4.0337352 L -2.2072895,0.016013256 L 8.7185884,-4.0017078 C 6.9730900,-1.6296469 6.9831476,1.6157441 8.7185878,4.0337352 z "
         transform="scale(1.1) rotate(180) translate(1,0)" />
    </marker>
    <marker
       inkscape:stockid="Arrow2Lend"
       orient="auto"
       refY="0"
       refX="0"
       id="Arrow2Lend-4"
       style="overflow:visible">
      <path
         inkscape:connector-curvature="0"
         id="path3833-2"
         style="font-size:12px;fill-rule:evenodd;stroke-width:0.625;stroke-linejoin:round"
         d="M 8.7185878,4.0337352 -2.2072895,0.01601326 8.7185884,-4.0017078 c -1.7454984,2.3720609 -1.7354408,5.6174519 -6e-7,8.035443 z"
         transform="matrix(-1.1,0,0,-1.1,-1.1,0)" />
    </marker>
    <marker
       inkscape:stockid="Arrow2Lend"
       orient="auto"
       refY="0"
       refX="0"
       id="Arrow2Lend-2"
       style="overflow:visible">
      <path
         inkscape:connector-curvature="0"
         id="path3833-21"
         style="font-size:12px;fill-rule:evenodd;stroke-width:0.625;stroke-linejoin:round"
         d="M 8.7185878,4.0337352 -2.2072895,0.01601326 8.7185884,-4.0017078 c -1.7454984,2.3720609 -1.7354408,5.6174519 -6e-7,8.035443 z"
         transform="matrix(-1.1,0,0,-1.1,-1.1,0)" />
    </marker>
  </defs>
  <sodipodi:namedview
     id="base"
     pagecolor="#ffffff"
     bordercolor="#666666"
     borderopacity="1.0"
     inkscape:pageopacity="0.0"
     inkscape:pageshadow="2"
     inkscape:zoom="1"
     inkscape:cx="375"
     inkscape:cy="640"
     inkscape:document-units="px"
     inkscape:current-layer="layer1"
     showgrid="false"
     inkscape:window-width="996"
     inkscape:window-height="602"
     inkscape:window-x="42"
     inkscape:window-y="661"
     inkscape:window-maximized="0" />
  <metadata
     id="metadata7">
    <rdf:RDF>
      <cc:Work
         rdf:about="">
        <dc:format>image/svg+xml</dc:format>
        <dc:type
           rdf:resource="http://purl.org/dc/dcmitype/StillImage" />
        <dc:title></dc:title>
      </cc:Work>
    </rdf:RDF>
  </metadata>
  <g
     inkscape:label="Layer 1"
     inkscape:groupmode="layer"
     id="layer1">
    <path
       style="fill:none;stroke:#000000;stroke-width:1px;stroke-linecap:butt;stroke-linejoin:miter;stroke-opacity:1"
       d="m 278,355.36218 -62,130 121,0 z"
       id="path3152"
       inkscape:connector-curvature="0"
       sodipodi:nodetypes="cccc" />
    <path
       transform="translate(14,35)"
       sodipodi:type="arc"
       style="fill:#800080;fill-opacity:1;stroke:#ffffff;stroke-width:1;stroke-miterlimit:4;stroke-opacity:1;stroke-dasharray:1, 3;stroke-dashoffset:0"
       id="path2985-4-5"
       sodipodi:cx="279"
       sodipodi:cy="398.36218"
       sodipodi:rx="6"
       sodipodi:ry="6"
       d="m 285,398.36218 a 6,6 0 1 1 -12,0 6,6 0 1 1 12,0 z" />
    <path
       transform="translate(-26,61)"
       sodipodi:type="arc"
       style="fill:#800080;fill-opacity:1;stroke:#ffffff;stroke-width:1;stroke-miterlimit:4;stroke-opacity:1;stroke-dasharray:1, 3;stroke-dashoffset:0"
       id="path2985-4-5-2"
       sodipodi:cx="279"
       sodipodi:cy="398.36218"
       sodipodi:rx="6"
       sodipodi:ry="6"
       d="m 285,398.36218 a 6,6 0 1 1 -12,0 6,6 0 1 1 12,0 z" />
    <path
       transform="translate(-8,7)"
       sodipodi:type="arc"
       style="fill:#800080;fill-opacity:1;stroke:#ffffff;stroke-width:1;stroke-miterlimit:4;stroke-opacity:1;stroke-dasharray:1, 3;stroke-dashoffset:0"
       id="path2985-4-5-7"
       sodipodi:cx="279"
       sodipodi:cy="398.36218"
       sodipodi:rx="6"
       sodipodi:ry="6"
       d="m 285,398.36218 a 6,6 0 1 1 -12,0 6,6 0 1 1 12,0 z" />
    <path
       transform="translate(158.5,34.500003)"
       sodipodi:type="arc"
       style="fill:#008000;fill-opacity:1;stroke:#ffffff;stroke-width:1;stroke-miterlimit:4;stroke-opacity:1;stroke-dasharray:1, 3;stroke-dashoffset:0"
       id="path2985-4-5-7-9"
       sodipodi:cx="279"
       sodipodi:cy="398.36218"
       sodipodi:rx="6"
       sodipodi:ry="6"
       d="m 285,398.36218 a 6,6 0 1 1 -12,0 6,6 0 1 1 12,0 z" />
    <path
       style="fill:none;stroke:#000000;stroke-width:1px;stroke-linecap:butt;stroke-linejoin:miter;stroke-opacity:1;marker-end:url(#Arrow2Lend)"
       d="m 273,402.36218 c 43,-69 144,-32 144,-32"
       id="path3039"
       inkscape:connector-curvature="0"
       sodipodi:nodetypes="cc" />
    <flowRoot
       xml:space="preserve"
       id="flowRoot3085"
       style="font-size:16px;font-style:normal;font-weight:normal;text-align:center;line-height:125%;letter-spacing:0px;word-spacing:0px;text-anchor:middle;fill:#000000;fill-opacity:1;stroke:none;font-family:Sans"
       transform="translate(-113,12)"><flowRegion
         id="flowRegion3087"><rect
           id="rect3089"
           width="144"
           height="45"
           x="316"
           y="492.36218"
           style="text-align:center;text-anchor:middle" /></flowRegion><flowPara
         id="flowPara3091">classification of</flowPara><flowPara
         id="flowPara3093">propositions</flowPara></flowRoot>    <flowRoot
       xml:space="preserve"
       id="flowRoot3095"
       style="font-size:16px;font-style:normal;font-weight:normal;text-align:center;line-height:125%;letter-spacing:0px;word-spacing:0px;text-anchor:middle;fill:#000000;fill-opacity:1;stroke:none;font-family:Sans"
       transform="translate(-141,20)"><flowRegion
         id="flowRegion3097"><rect
           id="rect3099"
           width="155"
           height="52"
           x="497"
           y="494.36218"
           style="text-align:center;text-anchor:middle" /></flowRegion><flowPara
         id="flowPara3101">bags of</flowPara><flowPara
         id="flowPara3103">rules</flowPara></flowRoot>    <flowRoot
       xml:space="preserve"
       id="flowRoot3105"
       style="font-size:16px;font-style:normal;font-weight:normal;line-height:125%;letter-spacing:0px;word-spacing:0px;fill:#000000;fill-opacity:1;stroke:none;font-family:Sans"
       transform="translate(-141,-3)"><flowRegion
         id="flowRegion3107"><rect
           id="rect3109"
           width="115"
           height="47"
           x="443"
           y="332.36218" /></flowRegion><flowPara
         id="flowPara3111">recommends</flowPara></flowRoot>    <flowRoot
       xml:space="preserve"
       id="flowRoot3039"
       style="font-size:16px;font-style:normal;font-weight:normal;text-align:center;line-height:125%;letter-spacing:0px;word-spacing:0px;text-anchor:middle;fill:#000000;fill-opacity:1;stroke:none;font-family:Sans"
       transform="translate(-172,55)"><flowRegion
         id="flowRegion3041"><rect
           id="rect3043"
           width="97"
           height="50"
           x="314"
           y="283.36218"
           style="text-align:center;text-anchor:middle" /></flowRegion><flowPara
         id="flowPara3045">1 inference</flowPara><flowPara
         id="flowPara3047">context</flowPara></flowRoot>    <path
       style="fill:none;stroke:#000000;stroke-width:1;stroke-linecap:butt;stroke-linejoin:miter;stroke-miterlimit:4;stroke-opacity:1;stroke-dasharray:4, 4;stroke-dashoffset:0"
       d="m 303.18109,450.76604 c 6.34903,-11.4509 -0.62224,-27.1585 -6.84432,-38.67888 -5.45328,-10.09692 -13.95111,-26.48491 -25.05935,-23.60515 -13.58977,3.52309 -8.31286,26.82168 -12.76586,40.13576 -5.24068,15.66919 -34.07777,41.07582 -16.41665,46.76952 23.43521,7.55519 50.44059,-5.42122 61.08618,-24.62125 z"
       id="path3901"
       inkscape:connector-curvature="0"
       sodipodi:nodetypes="aaaasa" />
    <path
       style="fill:none;stroke:#000000;stroke-width:1px;stroke-linecap:butt;stroke-linejoin:miter;stroke-opacity:1"
       d="m 223,363.36218 37,64"
       id="path3124"
       inkscape:connector-curvature="0"
       sodipodi:nodetypes="cc" />
    <path
       transform="translate(161,-39)"
       sodipodi:type="arc"
       style="fill:#008000;fill-opacity:1;stroke:#ffffff;stroke-width:1;stroke-miterlimit:4;stroke-opacity:1;stroke-dasharray:1, 3;stroke-dashoffset:0"
       id="path2985-4-5-7-9-4"
       sodipodi:cx="279"
       sodipodi:cy="398.36218"
       sodipodi:rx="6"
       sodipodi:ry="6"
       d="m 285,398.36218 a 6,6 0 1 1 -12,0 6,6 0 1 1 12,0 z" />
    <path
       transform="translate(141,-9)"
       sodipodi:type="arc"
       style="fill:#008000;fill-opacity:1;stroke:#ffffff;stroke-width:1;stroke-miterlimit:4;stroke-opacity:1;stroke-dasharray:1, 3;stroke-dashoffset:0"
       id="path2985-4-5-7-9-8"
       sodipodi:cx="279"
       sodipodi:cy="398.36218"
       sodipodi:rx="6"
       sodipodi:ry="6"
       d="m 285,398.36218 a 6,6 0 1 1 -12,0 6,6 0 1 1 12,0 z" />
    <path
       transform="translate(171,-8)"
       sodipodi:type="arc"
       style="fill:#008000;fill-opacity:1;stroke:#ffffff;stroke-width:1;stroke-miterlimit:4;stroke-opacity:1;stroke-dasharray:1, 3;stroke-dashoffset:0"
       id="path2985-4-5-7-9-82"
       sodipodi:cx="279"
       sodipodi:cy="398.36218"
       sodipodi:rx="6"
       sodipodi:ry="6"
       d="m 285,398.36218 a 6,6 0 1 1 -12,0 6,6 0 1 1 12,0 z" />
    <path
       transform="translate(191,45)"
       sodipodi:type="arc"
       style="fill:#008000;fill-opacity:1;stroke:#ffffff;stroke-width:1;stroke-miterlimit:4;stroke-opacity:1;stroke-dasharray:1, 3;stroke-dashoffset:0"
       id="path2985-4-5-7-9-45"
       sodipodi:cx="279"
       sodipodi:cy="398.36218"
       sodipodi:rx="6"
       sodipodi:ry="6"
       d="m 285,398.36218 a 6,6 0 1 1 -12,0 6,6 0 1 1 12,0 z" />
    <path
       transform="translate(122,45)"
       sodipodi:type="arc"
       style="fill:#008000;fill-opacity:1;stroke:#ffffff;stroke-width:1;stroke-miterlimit:4;stroke-opacity:1;stroke-dasharray:1, 3;stroke-dashoffset:0"
       id="path2985-4-5-7-9-5"
       sodipodi:cx="279"
       sodipodi:cy="398.36218"
       sodipodi:rx="6"
       sodipodi:ry="6"
       d="m 285,398.36218 a 6,6 0 1 1 -12,0 6,6 0 1 1 12,0 z" />
    <path
       transform="translate(117,83)"
       sodipodi:type="arc"
       style="fill:#008000;fill-opacity:1;stroke:#ffffff;stroke-width:1;stroke-miterlimit:4;stroke-opacity:1;stroke-dasharray:1, 3;stroke-dashoffset:0"
       id="path2985-4-5-7-9-1"
       sodipodi:cx="279"
       sodipodi:cy="398.36218"
       sodipodi:rx="6"
       sodipodi:ry="6"
       d="m 285,398.36218 a 6,6 0 1 1 -12,0 6,6 0 1 1 12,0 z" />
    <path
       transform="translate(156,92)"
       sodipodi:type="arc"
       style="fill:#008000;fill-opacity:1;stroke:#ffffff;stroke-width:1;stroke-miterlimit:4;stroke-opacity:1;stroke-dasharray:1, 3;stroke-dashoffset:0"
       id="path2985-4-5-7-9-7"
       sodipodi:cx="279"
       sodipodi:cy="398.36218"
       sodipodi:rx="6"
       sodipodi:ry="6"
       d="m 285,398.36218 a 6,6 0 1 1 -12,0 6,6 0 1 1 12,0 z" />
    <path
       transform="translate(180,71)"
       sodipodi:type="arc"
       style="fill:#008000;fill-opacity:1;stroke:#ffffff;stroke-width:1;stroke-miterlimit:4;stroke-opacity:1;stroke-dasharray:1, 3;stroke-dashoffset:0"
       id="path2985-4-5-7-9-52"
       sodipodi:cx="279"
       sodipodi:cy="398.36218"
       sodipodi:rx="6"
       sodipodi:ry="6"
       d="m 285,398.36218 a 6,6 0 1 1 -12,0 6,6 0 1 1 12,0 z" />
    <path
       style="fill:none;stroke:#000000;stroke-width:1;stroke-linecap:butt;stroke-linejoin:miter;stroke-miterlimit:4;stroke-opacity:1;stroke-dasharray:4, 4;stroke-dashoffset:0"
       d="m 464.11841,394.2687 c 7.25081,-10.90225 0.33719,-27.73085 -6.84432,-38.67888 -4.83696,-7.37382 -13.4986,-16.72248 -22.05935,-14.60515 -9.27338,2.29358 -10.87683,16.03029 -13.76586,25.13576 -3.9336,12.39769 -22.07777,33.07582 -4.41665,38.76952 23.43521,7.55519 38.17596,2.77606 47.08618,-10.62125 z"
       id="path3901-7"
       inkscape:connector-curvature="0"
       sodipodi:nodetypes="aaaasa" />
    <path
       style="fill:none;stroke:#000000;stroke-width:1;stroke-linecap:butt;stroke-linejoin:miter;stroke-miterlimit:4;stroke-opacity:1;stroke-dasharray:4, 4;stroke-dashoffset:0"
       d="m 482.80226,447.05308 c 3.43394,-10.44077 -14.58987,-17.72315 -24.84432,-21.67888 -9.97211,-3.84681 -21.7997,-3.60189 -32.05935,-0.60515 -14.51544,4.23981 -42.03224,10.62811 -37.76586,25.13576 4.7576,16.17802 32.92223,-4.92418 50.58335,0.76952 23.43521,7.55519 39.47939,10.3855 44.08618,-3.62125 z"
       id="path3901-7-6"
       inkscape:connector-curvature="0"
       sodipodi:nodetypes="aaaasa" />
    <path
       style="fill:none;stroke:#000000;stroke-width:1;stroke-linecap:butt;stroke-linejoin:miter;stroke-miterlimit:4;stroke-opacity:1;stroke-dasharray:4, 4;stroke-dashoffset:0"
       d="m 479.34257,424.03694 c 21.3312,15.41432 -9.29188,57.57545 -30.84432,72.67888 -13.41098,9.39809 -33.78985,8.523 -49.05935,2.60515 -11.40692,-4.42087 -30.40174,-14.81452 -25.76586,-26.13576 6.39018,-15.6054 32.92223,4.92418 50.58335,-0.76952 23.43521,-7.55519 35.27844,-62.69219 55.08618,-48.37875 z"
       id="path3901-7-6-1"
       inkscape:connector-curvature="0"
       sodipodi:nodetypes="aaaasa" />
    <path
       style="fill:none;stroke:#000000;stroke-width:1px;stroke-linecap:butt;stroke-linejoin:miter;stroke-opacity:1;marker-end:url(#Arrow2Lend)"
       d="m 297.62348,428.31626 c 50,-31 101,5 101,5"
       id="path3039-3"
       inkscape:connector-curvature="0"
       sodipodi:nodetypes="cc" />
    <path
       style="fill:none;stroke:#000000;stroke-width:1px;stroke-linecap:butt;stroke-linejoin:miter;stroke-opacity:1;marker-end:url(#Arrow2Lend)"
       d="m 257.62348,456.31626 c 55,-18 114,21 114,21"
       id="path3039-6"
       inkscape:connector-curvature="0"
       sodipodi:nodetypes="cc" />
  </g>
</svg>
